# xmcd CD database file generated by Grip 3.3.1
# 
# Track frame offsets:
#       150
#       35618
#       62478
#       81168
#       107909
#       149086
#       173379
#       215441
#       258205
#       272917
#       302483
# 
# Disc length: 4390 seconds
# 
# Revision: 1
# Processed by: cddbd v1.5.2PL0 Copyright (c) Steve Scherf et al.
# Submitted via: Grip 3.3.1
# 
DISCID=9811240b
DTITLE=Tucker, Hayashi, Gwynne - Halévy - La Juive CD2
DYEAR=1973
DGENRE=Alternative
TTITLE0=Act 2 - Pour m'éviter où portez vous vos pas? (Eléazar)
TTITLE1=Act 2 - Sonnez, clairons (Chorus)
TTITLE2=Act 2 - Je frisonne et succombe (Léopold)
TTITLE3=Act 2 - Eh bien! Nobles signeurs... Vous qui du Dieu vivant outra
TTITLE3=gez la puissance (Eléazar, Brogni)
TTITLE4=Act 3 - Du cardinal voici l'ordre suprême (Eudoxie)
TTITLE5=Act 3 - Le Cardinal, Madame, en ce lieu doit se rendre! (Officier
TTITLE5=)
TTITLE6=Act 3 - Toi, son complice (Brogni)
TTITLE7=Act 3 - Va prononcer ma mort... Rachel, quand du Seigneur (Eléaz
TTITLE7=ar)
TTITLE8=Act 3 - Et d'un mot arrêtant la sentence (Eléazar) 
TTITLE9=Act 3 - Le concile prononce un arrêt rigoreux! (Ruggiero)
TTITLE10=Act 3 - Je vais quitter la terre (Rachel)
EXTD=
EXTT0=
EXTT1=
EXTT2=
EXTT3=
EXTT4=
EXTT5=
EXTT6=
EXTT7=
EXTT8=
EXTT9=
EXTT10=
PLAYORDER=
